<svg width="23" height="7" viewBox="0 0 23 7" fill="none" xmlns="http://www.w3.org/2000/svg">
<path d="M5.80001 -4.76837e-07L7.00001 4.5L8.05001 -4.76837e-07H10L8.10001 7H6.20001L5.00001 2.65L3.80001 7H1.90001L6.09644e-06 -4.76837e-07H1.95001L3.00001 4.5L4.20001 -4.76837e-07H5.80001ZM11.2566 7H9.30665L11.9566 -4.76837e-07H13.9566L16.6066 7H14.6566L14.2066 5.75H11.7066L11.2566 7ZM12.1566 4.45H13.7566L12.9566 2.1L12.1566 4.45ZM19.3531 4.9L21.0531 -4.76837e-07H23.0031L20.3531 7H18.3531L15.7031 -4.76837e-07H17.6531L19.3531 4.9Z" fill="white"/>
</svg>
